<svg width="21" height="21" viewBox="0 0 21 21" fill="none" xmlns="http://www.w3.org/2000/svg">
<path fill-rule="evenodd" clip-rule="evenodd" d="M2.25181 10.9107C2.74821 8.42435 2.60407 6.05745 2.56648 3.55937C2.55907 3.07151 2.15845 2.68332 1.67203 2.69008C1.18532 2.69685 0.796642 3.09927 0.803759 3.58714C0.839468 5.95591 0.994289 8.2047 0.523269 10.5664C0.427889 11.0441 0.73812 11.5098 1.21514 11.6034C1.692 11.7 2.15672 11.3884 2.25181 10.9107Z" fill="#224893"/>
<path fill-rule="evenodd" clip-rule="evenodd" d="M7.60162 15.4506C11.54 11.5184 15.1939 6.5224 17.6816 1.53078C17.8985 1.09479 17.7213 0.564403 17.2859 0.348345C16.8505 0.132287 16.3207 0.308604 16.1038 0.744602C13.6982 5.57085 10.1645 10.4028 6.3561 14.2028C6.01193 14.5474 6.01159 15.1061 6.35525 15.4498C6.69891 15.7934 7.25745 15.7952 7.60162 15.4506Z" fill="#224893"/>
<path fill-rule="evenodd" clip-rule="evenodd" d="M8.82204 19.5022C12.6028 19.9559 16.425 18.7286 19.7721 17.084C20.2087 16.8677 20.3889 16.3392 20.1747 15.9046C19.9602 15.467 19.4314 15.2874 18.9947 15.5008C15.9464 16.9999 12.4756 18.1647 9.03213 17.752C8.54903 17.6939 8.10992 18.0397 8.05208 18.5216C7.99394 19.0035 8.33923 19.4441 8.82204 19.5022Z" fill="#224893"/>
</svg>
